# xmcd
#
# Track frame offsets:
#	150
#	12242
#	23527
#	34910
#	45902
#	57535
#	68460
#	79785
#	89632
#	100110
#	111555
#	122075
#
# Disc length: 1774 seconds
#
# Revision: 3
# Processed by: cddbd v1.5.2PL0 Copyright (c) Steve Scherf et al.
# Submitted via: EZCDAudioConverter 8.3.2.1
#
DISCID=9406ec0c
DTITLE=BUCK OWENS - SINGS HARLAN HOWARD
DYEAR=1900
DGENRE=country
TTITLE0=FOOLIN' AROUND
TTITLE1=HEARTACHES FOR A DIME
TTITLE2=HEARTACHES BY THE NUMBER
TTITLE3=LET'S AGREE TO DISAGREE
TTITLE4=KEEPER OF THE KEY
TTITLE5=I DON'T BELIEVE I FALL IN LOVE TODAY
TTITLE6=PICK ME UP ON YOUR WAY DOWN
TTITLE7=I'LL CATCH YOU WHEN YOU FALL
TTITLE8=LYIN' AGAIN
TTITLE9=THE ONE YOU SLIP AROUND WITH
TTITLE10=THINK IT OVER
TTITLE11=KEYS IN THE MAILBOX
EXTD=
EXTT0=
EXTT1=
EXTT2=
EXTT3=
EXTT4=
EXTT5=
EXTT6=
EXTT7=
EXTT8=
EXTT9=
EXTT10=
EXTT11=
PLAYORDER=
